<svg xmlns="http://www.w3.org/2000/svg" xmlns:xlink="http://www.w3.org/1999/xlink" id="Layer_74" width="137" height="127" x="0" y="0" enable-background="new 0 0 137 127" version="1.1" viewBox="0 0 137 127" xml:space="preserve"><g><path fill="#5B6166" d="M131.5,127H5.5c-2.485,0-4.5-2.015-4.5-4.5v-90C1,30.015,3.015,28,5.5,28h45c2.485,0,4.5,2.015,4.5,4.5 C55,39.944,61.056,46,68.5,46C75.944,46,82,39.944,82,32.5c0-2.485,2.015-4.5,4.5-4.5h45c2.485,0,4.5,2.015,4.5,4.5v90 C136,124.985,133.985,127,131.5,127z M10,118h117V37H90.548C88.457,47.257,79.365,55,68.5,55c-10.866,0-19.957-7.743-22.048-18H10 V118z"/></g><g><path fill="#5B6166" d="M131.5,11H5.5C2.462,11,0,8.538,0,5.5S2.462,0,5.5,0h126c3.037,0,5.5,2.462,5.5,5.5S134.537,11,131.5,11z"/></g></svg>