<svg xmlns="http://www.w3.org/2000/svg" xmlns:xlink="http://www.w3.org/1999/xlink" id="Copy" width="108" height="126" x="0" y="0" enable-background="new 0 0 108 126" version="1.1" viewBox="0 0 108 126" xml:space="preserve"><g><path fill="#5B6166" d="M103.5,126h-72c-2.485,0-4.5-2.015-4.5-4.5v-90c0-2.485,2.015-4.5,4.5-4.5h72c2.485,0,4.5,2.015,4.5,4.5v90 C108,123.985,105.985,126,103.5,126z M36,117h63V36H36V117z"/></g><g><path fill="#5B6166" d="M4.5,72C2.015,72,0,69.985,0,67.5v-63C0,2.015,2.015,0,4.5,0h54C60.985,0,63,2.015,63,4.5S60.985,9,58.5,9 H9v58.5C9,69.985,6.985,72,4.5,72z"/></g></svg>