<svg xmlns="http://www.w3.org/2000/svg" xmlns:xlink="http://www.w3.org/1999/xlink" id="Layer_9" width="73" height="63" x="0" y="0" enable-background="new 0 0 73 63" version="1.1" viewBox="0 0 73 63" xml:space="preserve"><g><path fill="#5B6166" d="M68.5,9h-64C2.015,9,0,6.985,0,4.5S2.015,0,4.5,0h64C70.985,0,73,2.015,73,4.5S70.985,9,68.5,9z"/></g><g><path fill="#5B6166" d="M68.5,36h-64C2.015,36,0,33.985,0,31.5S2.015,27,4.5,27h64c2.485,0,4.5,2.015,4.5,4.5S70.985,36,68.5,36z"/></g><g><path fill="#5B6166" d="M68.5,63h-64C2.015,63,0,60.985,0,58.5S2.015,54,4.5,54h64c2.485,0,4.5,2.015,4.5,4.5S70.985,63,68.5,63z"/></g></svg>