<svg xmlns="http://www.w3.org/2000/svg" xmlns:xlink="http://www.w3.org/1999/xlink" id="Topic_x5F_Icon_copy" width="115" height="115" x="0" y="0" enable-background="new 0 0 115 115" version="1.1" viewBox="0 0 115 115" xml:space="preserve"><g><polyline fill="#56C9EB" points="3.5 93.5 3.5 3.5 111.5 3.5 111.5 111.5 93.5 93.5 30.5 93.5"/></g><g><path d="M39.5,97h-36C1.567,97,0,95.433,0,93.5v-27C0,64.567,1.567,63,3.5,63S7,64.567,7,66.5V90h32.5c1.933,0,3.5,1.567,3.5,3.5 S41.433,97,39.5,97z"/></g><g><path d="M111.501,115c-0.911,0-1.807-0.355-2.476-1.025L92.05,97H84.5c-1.933,0-3.5-1.567-3.5-3.5s1.567-3.5,3.5-3.5h9 c0.929,0,1.818,0.369,2.475,1.025L108,103.05V7H66.5C64.567,7,63,5.433,63,3.5S64.567,0,66.5,0h45c1.933,0,3.5,1.567,3.5,3.5v108 c0,1.416-0.853,2.691-2.16,3.233C112.406,114.913,111.951,115,111.501,115z"/></g><g><path d="M66.5,97h-9c-1.933,0-3.5-1.567-3.5-3.5s1.567-3.5,3.5-3.5h9c1.933,0,3.5,1.567,3.5,3.5S68.433,97,66.5,97z"/></g><g><polygon fill="#FFF" points="3.5 39.5 3.5 21.5 21.5 21.5 21.5 3.5 39.5 3.5 39.5 21.5 57.5 21.5 57.5 39.5 39.5 39.5 39.5 57.5 21.5 57.5 21.5 39.5"/><path d="M39.5,61h-18c-1.933,0-3.5-1.567-3.5-3.5V43H3.5C1.567,43,0,41.433,0,39.5v-18C0,19.567,1.567,18,3.5,18H18V3.5 C18,1.567,19.567,0,21.5,0h18C41.433,0,43,1.567,43,3.5V18h14.5c1.933,0,3.5,1.567,3.5,3.5v18c0,1.933-1.567,3.5-3.5,3.5H43v14.5 C43,59.433,41.433,61,39.5,61z M25,54h11V39.5c0-1.933,1.567-3.5,3.5-3.5H54V25H39.5c-1.933,0-3.5-1.567-3.5-3.5V7H25v14.5 c0,1.933-1.567,3.5-3.5,3.5H7v11h14.5c1.933,0,3.5,1.567,3.5,3.5V54z"/></g></svg>