<svg xmlns="http://www.w3.org/2000/svg" xmlns:xlink="http://www.w3.org/1999/xlink" id="Reply_x5F_Topic" width="117.02" height="101.572" x="0" y="0" enable-background="new 0 0 117.02 101.572" version="1.1" viewBox="0 0 117.02 101.572" xml:space="preserve"><g><path fill="#5B6166" d="M112.497,101.572c-1.908,0-3.646-1.218-4.268-3.077c-6.689-20.071-20.204-30.249-40.166-30.249 c-5.378,0-9.945,0.785-12.778,1.425v27.401c0,1.819-1.097,3.461-2.778,4.157c-1.68,0.696-3.616,0.313-4.904-0.977L1.318,53.969 C0.474,53.125,0,51.979,0,50.787c0-1.193,0.474-2.338,1.317-3.182L47.604,1.319c1.287-1.287,3.223-1.674,4.904-0.975 c1.682,0.696,2.778,2.337,2.778,4.157v26.61c5.997,0.555,17.137,2.32,28.37,7.936C98.802,46.62,116.845,62.755,117,96.634 c0.014,0.145,0.021,0.29,0.021,0.438c0,2.463-1.979,4.464-4.433,4.499C112.557,101.572,112.527,101.572,112.497,101.572z"/></g></svg>