<svg xmlns="http://www.w3.org/2000/svg" xmlns:xlink="http://www.w3.org/1999/xlink" id="Search" width="117" height="117" x="0" y="0" enable-background="new 0 0 117 117" version="1.1" viewBox="0 0 117 117" xml:space="preserve"><g><path fill="#5B6166" d="M54,108C24.224,108,0,83.775,0,54C0,24.224,24.224,0,54,0c29.775,0,54,24.224,54,54 C108,83.775,83.775,108,54,108z M54,9C29.187,9,9,29.187,9,54c0,24.813,20.187,45,45,45c24.813,0,45-20.187,45-45 C99,29.187,78.813,9,54,9z"/></g><g><path fill="#5B6166" d="M112.5,117c-1.151,0-2.304-0.439-3.182-1.318L85.82,92.184c-1.758-1.757-1.758-4.606,0-6.363 c1.756-1.758,4.607-1.758,6.363,0l23.498,23.498c1.758,1.757,1.758,4.606,0,6.363C114.804,116.561,113.651,117,112.5,117z"/></g></svg>