<svg xmlns="http://www.w3.org/2000/svg" xmlns:xlink="http://www.w3.org/1999/xlink" id="P" width="144" height="144" x="0" y="0" enable-background="new 0 0 144 144" version="1.1" viewBox="0 0 144 144" xml:space="preserve"><g><circle cx="72" cy="72" r="72" fill="#598181"/></g><g><path fill="#FFF" d="M51.015,42.56h24.64c6.026,0,10.721,1.507,14.08,4.52c3.36,3.014,5.04,7.24,5.04,12.68 c0,5.44-1.68,9.68-5.04,12.72c-3.359,3.04-8.054,4.56-14.08,4.56h-14.32v21.92h-10.32V42.56z M74.375,69.119 c7.092,0,10.64-3.092,10.64-9.28c0-3.146-0.88-5.48-2.64-7c-1.761-1.52-4.428-2.28-8-2.28H61.334v18.56H74.375z"/></g></svg>