<svg xmlns="http://www.w3.org/2000/svg" xmlns:xlink="http://www.w3.org/1999/xlink" id="U" width="144" height="144" x="0" y="0" enable-background="new 0 0 144 144" version="1.1" viewBox="0 0 144 144" xml:space="preserve"><g><circle cx="72" cy="72" r="72" fill="#F9BC64"/></g><g><path fill="#FFF" d="M53.774,93.68c-4-4-6-9.84-6-17.52V42.56h10.08v34.159c0,4.854,1.146,8.521,3.44,11 c2.292,2.48,5.653,3.721,10.081,3.721c4.372,0,7.706-1.252,10-3.76c2.292-2.506,3.439-6.16,3.439-10.961V42.56h10.08V76.16 c0,7.627-2,13.453-6,17.479c-4,4.027-9.84,6.04-17.52,6.04C63.641,99.68,57.774,97.68,53.774,93.68z"/></g></svg>